<svg width="16" height="18" viewBox="0 0 16 18" fill="none" xmlns="http://www.w3.org/2000/svg">
<path d="M15.06 0.589722H1.10457C0.816356 0.589722 0.582398 0.776724 0.582398 1.00746V16.6529C0.58199 16.9663 0.800854 17.2535 1.14924 17.3968C1.49783 17.5399 1.9172 17.5149 2.23519 17.332L8.0823 13.9789L13.9296 17.3319C14.2478 17.5145 14.6668 17.5393 15.0151 17.3962C15.3633 17.253 15.5824 16.966 15.5824 16.6529V1.00746C15.5824 0.776724 15.3484 0.589722 15.06 0.589722ZM14.5378 16.6527L8.38683 13.1253C8.20488 13.021 7.96012 13.021 7.77838 13.1253L1.62715 16.6529V1.4252H14.5378V16.6527Z" fill="white"/>
</svg>
